  999
file created by SolveSpace
  0
SECTION
  2
HEADER
  9
$ACADVER
  1
AC1006
  9
$ANGDIR
  70
0
  9
$AUNITS
  70
0
  9
$AUPREC
  70
0
  9
$INSBASE
  10
0.0
  20
0.0
  30
0.0
  9
$EXTMIN
  10
0.0
  20
0.0
  9
$EXTMAX
  10
10000.0
  20
10000.0
  0
ENDSEC
  0
SECTION
  2
ENTITIES
  0
LINE
  8
0
  10
-12.157371
  20
-41.412055
  30
0.000000
  11
6.806833
  21
-41.412055
  31
0.000000
  0
ARC
  8
0
  10
6.806833
  20
-31.887055
  30
0.000000
  40
9.525000
  50
-90.000000
  51
-66.687679
  0
ARC
  8
0
  10
9.872654
  20
-39.001600
  30
0.000000
  40
1.778000
  50
-66.687679
  51
-15.843840
  0
ARC
  8
0
  10
9.872654
  20
-39.001600
  30
0.000000
  40
1.778000
  50
-15.843840
  51
35.000000
  0
LINE
  8
0
  10
11.329107
  20
-37.981781
  30
0.000000
  11
4.022093
  21
-27.546285
  31
0.000000
  0
ARC
  8
0
  10
5.322497
  20
-26.635732
  30
0.000000
  40
1.587500
  50
125.000000
  51
-145.000000
  0
ARC
  8
0
  10
5.322497
  20
-26.635732
  30
0.000000
  40
1.587500
  50
35.000000
  51
125.000000
  0
LINE
  8
0
  10
6.622901
  20
-25.725180
  30
0.000000
  11
12.896798
  21
-34.685234
  31
0.000000
  0
ARC
  8
0
  10
14.353251
  20
-33.665415
  30
0.000000
  40
1.778000
  50
-145.000000
  51
-79.130085
  0
ARC
  8
0
  10
14.353251
  20
-33.665415
  30
0.000000
  40
1.778000
  50
-79.130085
  51
-13.260170
  0
ARC
  8
0
  10
6.806833
  20
-31.887055
  30
0.000000
  40
9.531127
  50
-13.260170
  51
0.000000
  0
ARC
  8
0
  10
10.931107
  20
-31.962240
  30
0.000000
  40
5.407376
  50
0.796672
  51
30.536483
  0
ARC
  8
0
  10
66.473485
  20
-3.712724
  30
0.000000
  40
56.917814
  50
153.588616
  51
-153.381275
  0
ARC
  8
0
  10
10.839154
  20
24.352484
  30
0.000000
  40
5.407376
  50
-30.536483
  51
-0.796672
  0
ARC
  8
0
  10
6.721007
  20
24.277300
  30
0.000000
  40
9.525000
  50
0.000000
  51
90.000000
  0
LINE
  8
0
  10
6.721007
  20
33.802300
  30
0.000000
  11
6.145506
  21
33.802300
  31
0.000000
  0
ARC
  8
0
  10
6.145506
  20
32.024300
  30
0.000000
  40
1.778000
  50
90.000000
  51
180.000000
  0
LINE
  8
0
  10
4.367506
  20
32.024300
  30
0.000000
  11
4.367506
  21
19.379429
  31
0.000000
  0
ARC
  8
0
  10
1.827506
  20
19.379429
  30
0.000000
  40
2.540000
  50
-90.000000
  51
0.000000
  0
ARC
  8
0
  10
1.827506
  20
19.379429
  30
0.000000
  40
2.540000
  50
180.000000
  51
-90.000000
  0
LINE
  8
0
  10
-0.712494
  20
19.379429
  30
0.000000
  11
-0.712494
  21
32.024300
  31
0.000000
  0
ARC
  8
0
  10
-2.490494
  20
32.024300
  30
0.000000
  40
1.778000
  50
0.000000
  51
90.000000
  0
LINE
  8
0
  10
-2.490494
  20
33.802300
  30
0.000000
  11
-2.945870
  21
33.802300
  31
0.000000
  0
ARC
  8
0
  10
-2.945870
  20
32.024300
  30
0.000000
  40
1.778000
  50
90.000000
  51
180.000000
  0
LINE
  8
0
  10
-4.723870
  20
32.024300
  30
0.000000
  11
-4.723870
  21
19.379429
  31
0.000000
  0
ARC
  8
0
  10
-7.263870
  20
19.379429
  30
0.000000
  40
2.540000
  50
-90.000000
  51
0.000000
  0
ARC
  8
0
  10
-7.263870
  20
19.379429
  30
0.000000
  40
2.540000
  50
180.000000
  51
-90.000000
  0
LINE
  8
0
  10
-9.803870
  20
19.379429
  30
0.000000
  11
-9.803870
  21
32.024300
  31
0.000000
  0
ARC
  8
0
  10
-11.581870
  20
32.024300
  30
0.000000
  40
1.778000
  50
0.000000
  51
90.000000
  0
LINE
  8
0
  10
-11.581870
  20
33.802300
  30
0.000000
  11
-12.157371
  21
33.802300
  31
0.000000
  0
ARC
  8
0
  10
-12.157371
  20
24.277300
  30
0.000000
  40
9.525000
  50
90.000000
  51
180.000000
  0
ARC
  8
0
  10
-16.275518
  20
24.352484
  30
0.000000
  40
5.407376
  50
-179.203328
  51
-149.463517
  0
ARC
  8
0
  10
-71.909849
  20
-3.804878
  30
0.000000
  40
56.958865
  50
-26.494407
  51
26.494407
  0
ARC
  8
0
  10
-16.275518
  20
-31.962240
  30
0.000000
  40
5.407376
  50
149.463517
  51
179.203328
  0
ARC
  8
0
  10
-12.157371
  20
-31.887055
  30
0.000000
  40
9.525000
  50
180.000000
  51
-90.000000
  0
ENDSEC
  0
EOF
